<?xml version="1.0" encoding="UTF-8" standalone="no"?>
<!DOCTYPE svg PUBLIC "-//W3C//DTD SVG 1.1//EN"
 "http://www.w3.org/Graphics/SVG/1.1/DTD/svg11.dtd">
<!-- Generated by graphviz version 2.43.0 (0)
 -->
<!-- Title: workflow Pages: 1 -->
<svg width="714pt" height="172pt"
 viewBox="0.00 0.00 714.02 172.28" xmlns="http://www.w3.org/2000/svg" xmlns:xlink="http://www.w3.org/1999/xlink">
<g id="graph0" class="graph" transform="scale(1 1) rotate(0) translate(4 168.28)">
<title>workflow</title>
<polygon fill="white" stroke="transparent" points="-4,4 -4,-168.28 710.02,-168.28 710.02,4 -4,4"/>
<!-- place_732f9d48bbadd5445b24aa6a1d5f852cad86f35d -->
<g id="node1" class="node">
<title>place_732f9d48bbadd5445b24aa6a1d5f852cad86f35d</title>
<ellipse fill="lightblue" stroke="#333333" cx="38.73" cy="-58.35" rx="38.96" ry="38.96"/>
<text text-anchor="middle" x="38.73" y="-56.15" font-family="Arial" font-size="9.00">shopping_cart</text>
</g>
<!-- place_732f9d48bbadd5445b24aa6a1d5f852cad86f35d&#45;&gt;place_732f9d48bbadd5445b24aa6a1d5f852cad86f35d -->
<g id="edge4" class="edge">
<title>place_732f9d48bbadd5445b24aa6a1d5f852cad86f35d&#45;&gt;place_732f9d48bbadd5445b24aa6a1d5f852cad86f35d</title>
<path fill="none" stroke="#333333" d="M19.65,-92.13C19.02,-104.72 25.38,-115.08 38.73,-115.08 50.2,-115.08 56.51,-107.43 57.66,-97.29"/>
<polygon fill="#333333" stroke="#333333" points="59.42,-97.18 57.81,-92.13 55.92,-97.08 59.42,-97.18"/>
<text text-anchor="middle" x="38.73" y="-117.88" font-family="Arial" font-size="9.00">add_items_to_cart</text>
</g>
<!-- place_e956706bb2a9532bb8088a1a5b33069fad450cdb -->
<g id="node2" class="node">
<title>place_e956706bb2a9532bb8088a1a5b33069fad450cdb</title>
<ellipse fill="none" stroke="#333333" cx="250.39" cy="-91.35" rx="44.85" ry="44.85"/>
<text text-anchor="middle" x="250.39" y="-89.15" font-family="Arial" font-size="9.00">delivery_address</text>
</g>
<!-- place_732f9d48bbadd5445b24aa6a1d5f852cad86f35d&#45;&gt;place_e956706bb2a9532bb8088a1a5b33069fad450cdb -->
<g id="edge5" class="edge">
<title>place_732f9d48bbadd5445b24aa6a1d5f852cad86f35d&#45;&gt;place_e956706bb2a9532bb8088a1a5b33069fad450cdb</title>
<path fill="none" stroke="#333333" d="M76.85,-65.96C83.05,-67.15 89.43,-68.33 95.46,-69.35 130.43,-75.3 170.05,-80.94 200.34,-85.02"/>
<polygon fill="#333333" stroke="#333333" points="200.31,-86.78 205.5,-85.71 200.78,-83.31 200.31,-86.78"/>
<text text-anchor="middle" x="141.46" y="-85.15" font-family="Arial" font-size="9.00">add_delivery_address</text>
</g>
<!-- place_e956706bb2a9532bb8088a1a5b33069fad450cdb&#45;&gt;place_732f9d48bbadd5445b24aa6a1d5f852cad86f35d -->
<g id="edge1" class="edge">
<title>place_e956706bb2a9532bb8088a1a5b33069fad450cdb&#45;&gt;place_732f9d48bbadd5445b24aa6a1d5f852cad86f35d</title>
<path fill="none" stroke="#333333" d="M211.51,-68.28C203.8,-64.6 195.57,-61.35 187.46,-59.35 152.86,-50.82 112.29,-51.25 82.43,-53.44"/>
<polygon fill="#333333" stroke="#333333" points="82.21,-51.7 77.36,-53.83 82.48,-55.19 82.21,-51.7"/>
<text text-anchor="middle" x="141.46" y="-62.15" font-family="Arial" font-size="9.00">add_items_to_cart</text>
</g>
<!-- place_e956706bb2a9532bb8088a1a5b33069fad450cdb&#45;&gt;place_e956706bb2a9532bb8088a1a5b33069fad450cdb -->
<g id="edge2" class="edge">
<title>place_e956706bb2a9532bb8088a1a5b33069fad450cdb&#45;&gt;place_e956706bb2a9532bb8088a1a5b33069fad450cdb</title>
<path fill="none" stroke="#333333" d="M230.15,-131.6C230.46,-144.28 237.2,-154.28 250.39,-154.28 261.72,-154.28 268.29,-146.89 270.11,-136.77"/>
<polygon fill="#333333" stroke="#333333" points="271.87,-136.75 270.63,-131.6 268.39,-136.4 271.87,-136.75"/>
<text text-anchor="middle" x="250.39" y="-157.08" font-family="Arial" font-size="9.00">add_delivery_address</text>
</g>
<!-- place_daa274f08c76826d0cf807a0ddea77bc0479c623 -->
<g id="node3" class="node">
<title>place_daa274f08c76826d0cf807a0ddea77bc0479c623</title>
<ellipse fill="none" stroke="#333333" cx="481.67" cy="-58.35" rx="58.21" ry="58.21"/>
<text text-anchor="middle" x="481.67" y="-56.15" font-family="Arial" font-size="9.00">summary_for_purchase</text>
</g>
<!-- place_e956706bb2a9532bb8088a1a5b33069fad450cdb&#45;&gt;place_daa274f08c76826d0cf807a0ddea77bc0479c623 -->
<g id="edge3" class="edge">
<title>place_e956706bb2a9532bb8088a1a5b33069fad450cdb&#45;&gt;place_daa274f08c76826d0cf807a0ddea77bc0479c623</title>
<path fill="none" stroke="#333333" d="M295.18,-85.13C325.99,-80.74 368.18,-74.72 405.31,-69.35 409.73,-68.71 414.3,-68.05 418.89,-67.39"/>
<polygon fill="#333333" stroke="#333333" points="419.19,-69.11 423.89,-66.66 418.69,-65.65 419.19,-69.11"/>
<text text-anchor="middle" x="359.31" y="-85.15" font-family="Arial" font-size="9.00">to_summary</text>
</g>
<!-- place_daa274f08c76826d0cf807a0ddea77bc0479c623&#45;&gt;place_732f9d48bbadd5445b24aa6a1d5f852cad86f35d -->
<g id="edge6" class="edge">
<title>place_daa274f08c76826d0cf807a0ddea77bc0479c623&#45;&gt;place_732f9d48bbadd5445b24aa6a1d5f852cad86f35d</title>
<path fill="none" stroke="#333333" d="M423.89,-48.5C417.63,-47.43 411.34,-46.37 405.31,-45.35 317.36,-30.57 294.28,-19.34 205.46,-27.35 155.97,-31.82 144.28,-38.1 95.46,-47.35 91.05,-48.19 86.44,-49.08 81.85,-49.97"/>
<polygon fill="#333333" stroke="#333333" points="81.46,-48.26 76.89,-50.94 82.13,-51.7 81.46,-48.26"/>
<text text-anchor="middle" x="250.39" y="-30.15" font-family="Arial" font-size="9.00">add_items_to_cart</text>
</g>
<!-- place_daa274f08c76826d0cf807a0ddea77bc0479c623&#45;&gt;place_e956706bb2a9532bb8088a1a5b33069fad450cdb -->
<g id="edge7" class="edge">
<title>place_daa274f08c76826d0cf807a0ddea77bc0479c623&#45;&gt;place_e956706bb2a9532bb8088a1a5b33069fad450cdb</title>
<path fill="none" stroke="#333333" d="M423.66,-51.57C390.91,-49.34 349.25,-49.37 313.31,-58.35 306.72,-60 300.06,-62.5 293.68,-65.39"/>
<polygon fill="#333333" stroke="#333333" points="292.62,-63.96 288.85,-67.68 294.12,-67.12 292.62,-63.96"/>
<text text-anchor="middle" x="359.31" y="-61.15" font-family="Arial" font-size="9.00">add_delivery_address</text>
</g>
<!-- place_2f6d3eca5a849f14e9764ff9a4a76e9f53e690a8 -->
<g id="node4" class="node">
<title>place_2f6d3eca5a849f14e9764ff9a4a76e9f53e690a8</title>
<ellipse fill="none" stroke="#333333" cx="670.02" cy="-58.35" rx="36" ry="36"/>
<text text-anchor="middle" x="670.02" y="-56.15" font-family="Arial" font-size="9.00">ordered</text>
</g>
<!-- place_daa274f08c76826d0cf807a0ddea77bc0479c623&#45;&gt;place_2f6d3eca5a849f14e9764ff9a4a76e9f53e690a8 -->
<g id="edge8" class="edge">
<title>place_daa274f08c76826d0cf807a0ddea77bc0479c623&#45;&gt;place_2f6d3eca5a849f14e9764ff9a4a76e9f53e690a8</title>
<path fill="none" stroke="#333333" d="M540.1,-58.35C568.87,-58.35 603.01,-58.35 628.92,-58.35"/>
<polygon fill="#333333" stroke="#333333" points="628.99,-60.1 633.99,-58.35 628.99,-56.6 628.99,-60.1"/>
<text text-anchor="middle" x="587.02" y="-61.15" font-family="Arial" font-size="9.00">confirm_order</text>
</g>
</g>
</svg>
